<svg xmlns="http://www.w3.org/2000/svg" version="1.1" xmlns:xlink="http://www.w3.org/1999/xlink" xmlns:svgjs="http://svgjs.com/svgjs" width="1440" height="560" preserveAspectRatio="none" viewBox="0 0 1440 560"><g mask="url(&quot;#SvgjsMask1203&quot;)" fill="none"><rect width="1440" height="560" x="0" y="0" fill="url(#SvgjsRadialGradient1204)"></rect><path d="M854.0282981674678 253.6238742823715L896.391072710824 173.95108305318166 816.7182814816342 131.58830850982545 774.3555069382779 211.26109973901532z" fill="rgba(28, 83, 142, 0.4)" class="triangle-float3"></path><path d="M1354.0821547774847 379.4078285233017L1250.1851587958558 483.1069808909563 1373.534179182208 518.4767433246119z" fill="rgba(28, 83, 142, 0.4)" class="triangle-float1"></path><path d="M140.637,236.409C170.752,237.713,201.108,224.962,216.194,198.866C231.293,172.748,227.681,139.761,211.064,114.582C195.984,91.731,168.015,84.409,140.637,84.376C113.186,84.343,84.033,90.869,69.914,114.411C55.476,138.485,61.543,168.493,75.622,192.779C89.651,216.98,112.69,235.199,140.637,236.409" fill="rgba(28, 83, 142, 0.4)" class="triangle-float1"></path><path d="M65.02749097249463 427.4067529915138L-59.08713230580814 539.1600617478005 52.6661764504785 663.2746850261033 176.7807997287813 551.5213762698166z" fill="rgba(28, 83, 142, 0.4)" class="triangle-float2"></path><path d="M353.41,347.646C405.987,345.675,452.407,318.216,480.953,274.019C512.548,225.101,534.234,163.227,505.08,112.816C475.951,62.447,411.569,51.696,353.41,53.478C298.964,55.146,246.041,75.54,217.024,121.64C186.032,170.878,178.096,234.432,208.156,284.245C237.411,332.724,296.828,349.767,353.41,347.646" fill="rgba(28, 83, 142, 0.4)" class="triangle-float3"></path><path d="M993.537,609.572C1041.865,608.227,1076.693,570.272,1102.589,529.445C1131.213,484.316,1163.322,430.167,1136.732,383.81C1110.078,337.341,1047.098,338.286,993.537,339.324C942.503,340.313,886.264,345.628,859.645,389.181C832.203,434.08,846.117,490.85,873.439,535.822C899.582,578.854,943.205,610.973,993.537,609.572" fill="rgba(28, 83, 142, 0.4)" class="triangle-float2"></path><path d="M352.1412477317757 200.11243523874433L383.95745734182753 349.7959329396715 533.6409550427547 317.9797233296197 501.8247454327029 168.2962256286925z" fill="rgba(28, 83, 142, 0.4)" class="triangle-float2"></path><path d="M134.168,236.093C154.074,236.522,170.101,221.679,180.02,204.415C189.897,187.224,194.134,166.214,184.164,149.077C174.241,132.022,153.894,125.138,134.168,125.606C115.323,126.053,97.241,134.859,88.115,151.353C79.246,167.382,82.871,186.412,91.618,202.508C100.866,219.524,114.806,235.675,134.168,236.093" fill="rgba(28, 83, 142, 0.4)" class="triangle-float1"></path><path d="M1403.0752642906214 126.6975532557365L1279.2202526088736 36.71161996234605 1189.2343193154832 160.56663164409372 1313.089330997231 250.55256493748416z" fill="rgba(28, 83, 142, 0.4)" class="triangle-float2"></path><path d="M87.3259923521282 290.7831049199757L75.68961223757437 454.94269818596365 206.07229298946064 394.1442556605807z" fill="rgba(28, 83, 142, 0.4)" class="triangle-float3"></path><path d="M1238.692,466.977C1293.4,465.878,1336.789,424.373,1361.615,375.61C1384.093,331.458,1378.208,281.218,1355.744,237.06C1330.478,187.394,1294.383,135.883,1238.692,133.98C1180.776,132.001,1134.217,177.443,1106.916,228.559C1081.304,276.512,1080.607,333.147,1106.905,380.727C1134.125,429.975,1182.433,468.107,1238.692,466.977" fill="rgba(28, 83, 142, 0.4)" class="triangle-float2"></path><path d="M866.832,384.771C916.385,386.308,962.207,355.916,984.884,311.829C1005.902,270.968,992.796,224.004,970.066,184.07C947.023,143.587,913.413,104.76,866.832,104.429C819.838,104.096,783.001,141.044,761.03,182.587C740.604,221.209,740.563,266.167,760.82,304.878C782.809,346.898,819.429,383.3,866.832,384.771" fill="rgba(28, 83, 142, 0.4)" class="triangle-float3"></path><path d="M662.016735461601 472.04280477286966L560.2781503382398 468.4900150933602 556.7253606587304 570.2286002167214 658.4639457820916 573.7813898962308z" fill="rgba(28, 83, 142, 0.4)" class="triangle-float1"></path><path d="M981.7411498343954 528.949926067748L1078.0076854987935 425.9137514832328 958.4046265719667 396.0933596670718z" fill="rgba(28, 83, 142, 0.4)" class="triangle-float3"></path><path d="M1005.4035301139126-4.984234345127625L907.965243432476 44.66305247419834 1031.1553170021832 165.9968390866901z" fill="rgba(28, 83, 142, 0.4)" class="triangle-float1"></path></g><defs><mask id="SvgjsMask1203"><rect width="1440" height="560" fill="#ffffff"></rect></mask><radialGradient cx="50%" cy="50%" r="772.53" gradientUnits="userSpaceOnUse" id="SvgjsRadialGradient1204"><stop stop-color="#0e2a47" offset="0"></stop><stop stop-color="rgba(0, 69, 158, 1)" offset="0.69"></stop></radialGradient><style>
            @keyframes float1 {
                0%{transform: translate(0, 0)}
                50%{transform: translate(-10px, 0)}
                100%{transform: translate(0, 0)}
            }

            .triangle-float1 {
                animation: float1 5s infinite;
            }

            @keyframes float2 {
                0%{transform: translate(0, 0)}
                50%{transform: translate(-5px, -5px)}
                100%{transform: translate(0, 0)}
            }

            .triangle-float2 {
                animation: float2 4s infinite;
            }

            @keyframes float3 {
                0%{transform: translate(0, 0)}
                50%{transform: translate(0, -10px)}
                100%{transform: translate(0, 0)}
            }

            .triangle-float3 {
                animation: float3 6s infinite;
            }
        </style></defs></svg>